<svg width="450" height="315" viewBox="0 0 450 315" fill="none" xmlns="http://www.w3.org/2000/svg">
<path d="M112.5 101.25C131.133 101.25 146.25 116.367 146.25 135C146.25 153.633 131.133 168.75 112.5 168.75H78.75V208.125C78.75 211.219 76.2188 213.75 73.125 213.75C70.0172 213.75 67.5 211.219 67.5 208.125V106.875C67.5 103.781 70.0172 101.25 73.125 101.25H112.5ZM135 135C135 122.555 124.945 112.5 112.5 112.5H78.75V157.5H112.5C124.945 157.5 135 147.445 135 135ZM180 106.875C180 103.781 182.531 101.25 185.625 101.25H225C243.633 101.25 258.75 116.367 258.75 135C258.75 150.398 248.414 163.406 234.352 167.414L257.906 205.172C259.523 207.773 258.117 211.219 256.078 212.906C253.477 214.523 250.031 213.117 248.344 211.078L221.906 168.75H191.25V208.125C191.25 211.219 188.719 213.75 185.625 213.75C182.531 213.75 180 211.219 180 208.125V106.875ZM191.25 157.5H225C237.445 157.5 247.5 147.445 247.5 135C247.5 122.555 237.445 112.5 225 112.5H191.25V157.5ZM388.125 151.875V163.125C388.125 191.109 365.484 213.75 337.5 213.75C309.516 213.75 286.875 191.109 286.875 163.125V151.875C286.875 123.891 309.516 101.25 337.5 101.25C365.484 101.25 388.125 123.891 388.125 151.875ZM298.125 163.125C298.125 184.852 315.773 202.5 337.5 202.5C359.227 202.5 376.875 184.852 376.875 163.125V151.875C376.875 130.148 359.227 112.5 337.5 112.5C315.773 112.5 298.125 130.148 298.125 151.875V163.125ZM0 45C0 20.1445 20.1445 0 45 0H405C429.82 0 450 20.1445 450 45V270C450 294.82 429.82 315 405 315H45C20.1445 315 0 294.82 0 270V45ZM11.25 45V270C11.25 288.633 26.3602 303.75 45 303.75H405C423.633 303.75 438.75 288.633 438.75 270V45C438.75 26.3602 423.633 11.25 405 11.25H45C26.3602 11.25 11.25 26.3602 11.25 45Z" fill="black"/>
</svg>
